# xmcd
# 
# Track frame offsets:
#     150
#     17330
#     33127
#     47387
#     65802
#     89972
#     103652
#     120527
#     138087
#     151672
#     166037
#     178182
#     196215
#     215142
#     234285
# 
# Disc length: 3324
# 
# Revision: 4
# Processed by: cddbd v1.5.2PL0 Copyright (c) Steve Scherf et al.
# Submitted via: BonkEnc v1.0
# 
DISCID=be0cfa0f
DTITLE=Vários - Sucessos Sertanejos 2
DYEAR=0
DGENRE=
TTITLE0=Leandro e Leonardo - Doce Mistério
TTITLE1=Roberta Miranda - Sol da Minha Vida
TTITLE2=Chrystian e Ralf - Vida Dividida
TTITLE3=Bruno e Marrone - Fruto Especial
TTITLE4=João Paulo e Daniel - Te Amo Cada Vez Mais
TTITLE5=Felipe e Falcão - Que Pena
TTITLE6=Pena Branca e Xavantinho - O Cio da Terra
TTITLE7=Chico Rey e Paraná - Quem Será seu Outro Amor
TTITLE8=Milionário e José Rico - Vá Pro Inferno com Seu Amor
TTITLE9=Almir Sater - Cabecinha no Ombro
TTITLE10=Tonico e Tinoco - Moreninha Linda
TTITLE11=Dino Franco  e Mouraí - Manto Estrelado
TTITLE12=Umberto e Raul - Solidão - Meu Disfarce - Te Amo, Mas, Adeus
TTITLE13=Cézar e Paulinho - Tem Alguém Que Te Quer
TTITLE14=Irmãs Galvão - No Calor dos Teus Braços
EXTD=
EXTT0=Leandro and Leonardo
EXTT1=Roberta Miranda
EXTT2=Chrystian and Ralf
EXTT3=Bruno and Marrone
EXTT4=João Paulo and Daniel
EXTT5=Felipe and Falcão
EXTT6=Pena Branca and Xavantinho
EXTT7=Chico Rey and Paraná
EXTT8=Milionário and José Rico
EXTT9=Almir Sater
EXTT10=Tonico and Tinoco
EXTT11=Dino Franco and Moura
EXTT12=Umberto and Raul
EXTT13=Cézar and Paulinho
EXTT14=Irmas Galvão
PLAYORDER=
